<svg xmlns="http://www.w3.org/2000/svg" width="16.263" height="24.264" viewBox="0 0 16.263 24.264">
  <g id="Сгруппировать_960" data-name="Сгруппировать 960" transform="translate(2793 3572)">
    <path id="Прямоугольник_236" data-name="Прямоугольник 236" d="M1,0H16a1,1,0,0,1,1,1V6a0,0,0,0,1,0,0H1A1,1,0,0,1,0,5V1A1,1,0,0,1,1,0Z" transform="translate(-2788.757 -3572) rotate(45)" fill="#fff"/>
    <path id="Прямоугольник_237" data-name="Прямоугольник 237" d="M1,0H17a0,0,0,0,1,0,0V5a1,1,0,0,1-1,1H1A1,1,0,0,1,0,5V1A1,1,0,0,1,1,0Z" transform="translate(-2793 -3551.979) rotate(-45)" fill="#fff"/>
  </g>
</svg>
